<?xml version="1.0" encoding="utf-8"?>
<!-- Generator: Adobe Illustrator 25.2.3, SVG Export Plug-In . SVG Version: 6.00 Build 0)  -->
<svg version="1.1" xmlns="http://www.w3.org/2000/svg" xmlns:xlink="http://www.w3.org/1999/xlink" x="0px" y="0px"
	 viewBox="0 0 612 792" style="enable-background:new 0 0 612 792;" xml:space="preserve">
<style type="text/css">
	.st0{fill:whitesmoke;stroke:rgb(183, 240, 146);stroke-width:2;stroke-linecap:round;stroke-linejoin:round;stroke-miterlimit:10;}
	.st1{fill:white;stroke:rgb(183, 240, 146);stroke-width:2}
	.st2{fill:rgb(241, 191, 189);stroke:rgb(238, 130, 127);stroke-width:2}
</style>
<g id="Layer_1">
	<g>
		<g>
			<path class="st2" d="M295,395.5c2.9-1.9,2.8-4.3,2.8-6.7c0-4.2,0-8.4,0-12.6c0-1.2-0.1-2.3-0.2-3.7c-4.7-0.9-9.3-0.5-14.2-0.4
				c-0.2,1.8-0.6,3.3-0.6,4.8c-0.1,4.1-0.2,8.2,0,12.2c0.1,2,0.7,4,1.2,6.3c-1.4,0.9-3.3,0.7-5.8-0.1c2.3-2.6,1.8-5.6,1.8-8.5
				c0-5.8,0.1-11.6,0-17.3c-0.1-2.5-0.6-5.1-1-7.8c1.7,0,3.9,0,6.5,0c-2.2,2.3-3.9,4.7-1.9,8c4.3,0.9,8.8,0.4,13.4,0.2
				c1.2-3.1,0.8-5.7-1.9-8.3c2.5,0,4.3,0,6.1,0c0,11.3,0,22.4,0,33.9C299.7,396.9,297.8,395.8,295,395.5z"/>
			<path class="st2" d="M268.5,425.9c-0.1,3.6-2.6,6.3-6,6.2c-3.3,0-6.1-2.9-5.9-6.3c0.1-3.6,2.7-6,6.3-5.8C266.6,420.1,268.6,422.2,268.5,425.9
				z M258.4,426c0,2.5,2.1,4.7,4.6,4.6c2.2-0.1,3.7-1.9,3.8-4.4c0.1-3-1.2-4.6-3.7-4.7C260.3,421.4,258.4,423.3,258.4,426z"/>
			<path class="st2" d="M297,426.1c-0.1,3.9-2.3,6.1-5.9,6c-3.2-0.1-6-2.9-6-5.9c0-3.9,2.5-6.3,6.3-6.3C295.1,419.9,297.1,422,297,426.1z
				 M295.8,426c0-2.3-2.2-4.4-4.4-4.4c-2.4,0-4.5,2.3-4.4,4.8c0.1,2.1,2.1,4.2,4.1,4.3C293.3,430.7,295.9,428.2,295.8,426z"/>
			<path class="st2" d="M314.3,425.6c0.1-3.6,2.2-5.7,5.9-5.7c3.5,0,6.2,2.6,6.1,6.1c-0.1,3.3-3,6.1-6.3,6C316.5,432,314.2,429.3,314.3,425.6z
				 M324.4,426.2c0.1-2.5-2.1-4.7-4.5-4.7c-2.3,0-4.1,1.9-4.2,4.5c-0.1,2.2,2.1,4.6,4.2,4.6C322.3,430.6,324.4,428.5,324.4,426.2z"
				/>
		</g>
	</g>
</g>
<g id="Layer_2">
	<g>
		<g>
			<!-- <path class="st1" d="M237.4,505.1c1,0.7,2.2,1.8,3.5,2.4c7.6,3.5,15.2,6.7,23.2,9c1,0.3,1.9,0.6,3.5,1.1c-3.7-5.3-6.9-10-10.5-14.5
				c-1.7-2.2-3.6-4.3-6.4-5.4c-0.7-0.3-1.1-1-2.3-2.1c2.9,0.1,4.9-0.6,7.1,0.5c1.6,0.7,3.5,0.4,5.3,0.8c5,1.1,9.1,2.5,13.8,5.7
				c2.2,1.5,4.5,2.9,6.2,4.8c3.5,3.8,5,7.7,5.4,12.7c1.2,1.3,2.8,1.6,4.6,1.7c3.2,0.1,6.3,0.6,9.4,0.7c2.5,0,5,0.3,7.6-0.6
				c2.3-0.8,5,0.2,7.6-0.7c1.4-0.5,3.3-0.4,4.9-0.8c2.7-0.7,5.5-1.1,8.3-1.8c2.6-0.7,5.1-1.5,8.1-2.5c-2.4-0.8-4.3-1.3-6.2-2
				c-2.8-1.1-5.5-2.4-8.3-3.5c-1.8-0.7-3.7-1.3-5.7-1.7c-1.9-0.4-3.8-0.5-5.7-0.7c-0.5,0-1-0.6-1.5-1c2-1.2,4-1.8,6.3-2.1
				c1.8-0.2,4,0,5.5-0.9c1.7-1,3.5,0,5.2-1c2.1-1.2,13.5-1.4,15.7-0.9c3.3,0.8,6.3,2.4,9,4.6c0.5,0.4,0.8,1.2,1.3,1.3
				c1.2,0.2,2.2,1.2,3.9,0.2c3.5-2,6.9-4,10.1-6.5c3.7-2.8,7.3-5.7,10.4-9.1c1.7-1.8,3.1-3.9,5.1-6.3c-1.9,0.3-3.1,0.5-4.3,0.8
				c-1.6,0.4-3.1,1-4.6,1.5c-0.8,0.2-1.5,0.6-2.3,0.7c-1,0.1-2,0.1-3,0c-4.2-0.3-8.3,0.4-12.4,0.8c-0.4,0-0.8,0.5-1.2,0.6
				c-0.5,0.1-1,0.1-1.5,0.1c-0.2,0-0.3-0.3-0.7-0.7c2-2.3,4.1-4.6,6.5-6.5c2.2-1.7,4.4-3.6,6.9-4.9c2.9-1.5,5.8-2.9,9-3.7
				c3.2-0.9,6.3-0.4,9.5-0.6c0.4,0,0.9,0.2,1.4,0.3c2.6,0.8,3,0.5,4.5-2c1.1-1.8,1.5-4.1,3.8-5.2c0.4,0.3,0.8,0.7,1.3,1.2
				c-3.2,5.5-5.4,11.4-8.9,16.8c-3.6,5.6-8.3,10.2-12.9,14.9c0.4,1.8,2.2,2.3,3.2,3.5c1.7,2.2,2.3,4.6,2.8,7.1
				c0.4,1.9-0.5,3.7-1.2,5.5c-0.8,2-2,3.8-3.7,5.2c-4,3.3-8.6,5.7-13.2,8c-1.1,0.5-1.2,0.5-2.8-0.8c1.4-2,3.4-3.4,4.8-5.5
				c1.8-2.7,2.7-5.5,2.7-8.7c0-2-0.9-3.6-1.6-5.4c-0.5-1.4-1.4-1.5-3-0.8c-0.4,0.2-0.9,0.3-1.3,0.5c-2.9,2.2-6.4,3.3-9.6,4.9
				c-4,2-8.4,3.2-12.7,4.6c-3.6,1.2-7.4,2.2-11.1,3.1c-1.9,0.5-3.9,1.8-4.3,4.3c-0.1,0.9-0.7,1.8-1.3,2.4c-2.9,3.1-6,5.8-9.9,7.8
				c-4.5,2.3-9.3,3.5-14.1,4.8c-1.9,0.5-4,0.4-5.8,1.4c-0.6,0.3-1.7-0.6-2.5-0.9c4-5.4,8.9-9.9,13.6-14.6c0.6-0.6,1-1.3,1.9-2.4
				c-16.3,0.3-31.6-2.3-46.7-7.5c-1.8,4-5,6.9-9.2,8.5c-2.8,1-5.4,2.2-8.5,2c-3.7-0.2-7.5,0.1-11.2-0.1c-3-0.2-5.7,0.8-8.6,1
				c-0.2,0-0.4,0.3-0.6,0.6c-0.4-0.5-0.9-1-1.2-1.5c1.3-1.1,2.3-2.1,3.4-2.9c3.6-2.8,7-6,11.4-7.7c1.5-0.6,3.1-1,4.7-1.5
				c2.7-0.7,5.3-0.5,8-0.7c1.4-0.1,2.7-0.6,4.3-1c-5.6-2.9-11.1-5.8-16.7-8.4c-2.3-1-4.7-2-6.9-3.3c-1.9-1.1-4.1-1.3-6-0.7
				c-1.5,0.5-3.2,0.8-4.7,1.3c-1.5,0.4-3.2,0.2-4.8,0.1c-2.1-0.2-4.1-0.7-6.2-1.3c-3.9-1.2-7.8-2-11.6-3.8c-1.7-0.8-4-0.7-6-0.8
				c-1.7-0.1-3.5,0-5.1,0c-0.9-1.3,0.3-2,0.8-2.2c3.6-0.9,7-2.4,10.7-3.3c3.1-0.7,6.2-1.1,9.3-2c1.5-0.4,3.5,0.4,5.1,1
				c2.4,0.9,4.6,2.1,6.9,3.1c2.8,1.3,5.7,2.6,8.8,4c-0.1-0.6-0.2-1.1-0.4-1.5c-1.2-2.7-2.5-5.5-3.7-8.2c-0.3-0.6-0.6-5.4-0.7-6.1
				c-0.2-1.5-0.6-3.1-1.5-4.4c-0.5-0.7-1.2-1.3-2-2c1.1-0.4,2.1-0.4,3.1,0.1c4.3,2.1,8.6,4.3,11.6,8c3.1,3.8,6.2,7.7,8,12.4
				c0.6,1.5,1.2,3.1,1.3,4.7C238.8,502.1,238,503.4,237.4,505.1z M282.9,520.3c0.3-0.8,1.1-1.9,0.9-2.7c-0.6-2.3-1.1-4.8-2.9-6.6
				c-4.8-4.8-9.8-9-16.6-10.5c-1.9-0.4-3.7-1.6-6.2-0.7c1.5,2.2,2.8,4.2,4.2,6.2c0.9,1.4,2,2.6,2.8,4.1c0.8,1.5,2.8,2.1,3,4
				c3,3.3,6.5,5.5,11.1,5.7C280.4,519.7,281.5,520,282.9,520.3z M351,510.8c-3.5-4.5-7.9-5.9-12.7-6.2c-2-0.1-4,0.4-6,0.6
				c-3.9,0.4-7.7,1.3-12.2,1.9c3.9,1.5,6.8,3.3,10.2,4.6c6.3,2.3,12.4,2.6,18.7,0.4C349.6,511.9,350.1,511.4,351,510.8z M254,517.4
				c-6.2,0.1-12-0.4-17.8,1.5c-3.5,1.1-6.9,2.3-9.5,5.1c-0.3,0.4-0.5,0.9-0.9,1.8c2.5,0,4.8-0.6,6.6,0.2c1.6,0.7,3.1,0.3,4.6,0.5
				c1.9-1.5,4.3-0.7,6.5-1.4C248.1,523.6,251.5,521.6,254,517.4z M235.9,502c0-3.6-0.5-4.7-1.9-8c-1.9-4.4-5.2-7.5-8.5-10.6
				c-0.9-0.9-2.2-1.9-3.9-1c0.4,1.9-0.4,3.9,0.5,5.8c1.3,3,2.7,5.9,4.7,8.6c2,2.7,4.2,4.9,6.8,6.4C234.4,502.8,235,502.5,235.9,502z
				 M385.9,477.9c-10.6-1.7-19.8,2.4-26.2,10.1c2.5,0.2,4.8-0.3,7.2-0.5c3.4-0.3,6.6-1.2,9.8-1.7c1.3-0.2,2.6-0.8,3.8-1.6
				C383,482.6,384.2,480.1,385.9,477.9z M319.2,525.8c-6.9-0.9-13,0.9-18.1,5.5c-2.2,2-4,4.4-6.2,6.9c6.5,0.6,11.7-2.1,16.9-4.9
				C314.9,531.6,317.8,529.6,319.2,525.8z M366.3,523.4c0.6-0.4,0.9-0.7,1.3-0.8c0.5-0.1,1,0.1,1.4-0.1c2.1-1,5.1-3.6,6-6
				c0.8-2.2,1.7-4.6,1-7c-0.7-2.5-1.7-4.9-4.4-6c-1.9-0.7-3.7-0.4-4.3,1.4c-0.4,1.2-1.9,2.7-0.3,4.2c0.4,0.4,0.4,1.1,0.5,1.7
				c0.2,2.2,2.1,4.4,0.3,6.7C368.1,519.5,366.7,521.2,366.3,523.4z M217.1,499.6c-2.2-3.3-2.5-3.6-8.9-5.7c-6.1-1.9-6-2.1-17.6,1.5
				c6.3,1.3,12,3.8,18.1,4.9C211.9,501,213.3,501.1,217.1,499.6z"/> -->
			<!-- <path class="st1" d="M244,302.1c-1,3.9-4.9,4.3-7,6.7c-3.7,1.2-6.9,3.7-10.8,4.8c-4,1.1-8,2.4-12.3,1.9c-2.2-0.3-4.3-1-6.8-1.5
				c-1.3,1-2.5,2.2-3.3,3.9c-0.7,1.4-1.8,2.6-2.8,4c-0.8-1.6-0.4-2.7,0.2-3.9c2.1-4.2,4.6-8.2,7.6-11.9c2.6-3.3,5.5-6.3,8.7-9.1
				c2.2-1.9,4.3-3.9,6.7-6.1c-0.9-0.9-1.6-1.7-2.4-2.5c-2.1-2-2.1-4.9-3.2-7.3c1.1-2.9,1.1-6.2,3.6-8.6c3.4-3.3,7-6,11.7-7.2
				c1.5-0.4,2.9-1.4,4.4-2c0.5-0.2,1.2-0.2,2.2-0.3c-0.3,1-0.3,2.2-0.7,2.4c-3.5,1.6-4.5,5-6.2,7.9c-0.7,1.3-1.6,3-1.3,4.2
				c0.3,1.1,0.2,2.3,0.7,3.4c0.6,1.3,1,2.6,1.6,4c2.3-1,4.4-2,6.7-2.9c4.8-1.9,9.6-3.5,14.6-4.6c5-1.2,10.1-2.5,15.2-3.1
				c1.2-0.1,2.3-1.2,3.5-1.4c1.8-0.3,1.8-1.8,2.4-2.9c1.9-3.1,1.9-3,4.8-5.4c3-2.4,6.7-3.3,9.8-5.3c2.3,0.1,4.3-1.1,6.5-1.5
				c2.6-0.5,5.3-0.5,7.9-0.8c0.7-0.1,1.3-0.5,2-0.6c1.2-0.2,2.5-0.4,3.4,1.1c-5.1,4.8-9.5,10.4-15.6,14.2c1.1,1.1,2.7,0.9,4.1,1.2
				c4.4,0.9,8.9,1.1,13.1,2.7c1.3,0.5,3-0.5,4.1,1c3.8,0.5,7.5,1.7,11.1,3c4.1,1.5,8.1,3.3,12.3,5c1.3-2.1,3.1-4.1,5.5-5.6
				c1.8-1.2,3.8-1.7,5.8-2.4c2.6-0.9,5.3-0.8,7.9-0.7c3.5,0.1,7,0.6,10.6,0.7c3.6,0.1,7.2,0,10.9,0c-0.1,0.7-0.1,1.2-0.3,1.3
				c-3.6,1.4-6.1,4.3-9.5,6c-1.5,0.7-3,1.3-4.4,2.1c-1.4,0.8-2.9,0.8-4.4,1.3c-1.9,0.6-3.8,0.6-5.7,0.6c-2.7,0-5.3-0.3-8,1.1
				c4.9,2.7,9.6,5.8,14.4,8.7c2.8,1.7,5.6,3.3,8.4,5.1c1.6,1,3.5,1.1,5.3,0.7c5.7-1.2,10.4-0.7,15.4,1.2c5,1.9,9.6,4.6,14.8,5.9
				c0.7,0.2,1.4,0.4,2,0.5c1.5,0.1,3,0,4.4,0c0.4,0.4,0.7,0.7,1.3,1.3c-1.5,0.6-2.9,1.4-4.3,1.6c-3,0.5-6.1,1.2-9.1,1.7
				c-2.9,0.5-5.8,0.3-8.7,0.6c-2.6,0.2-4.9-0.6-7.2-1.7c-4.5-2.1-8.8-4.8-13.1-8.4c0.9,3.1,1.3,5.7,2.4,8c1.2,2.5,1.6,5,1.4,7.7
				c-0.3,3,1.2,5.3,2.9,7.6c-0.2,0.2-0.5,0.6-0.8,0.9c-3.6-1.5-6.6-3.7-9.2-6.6c-2.5-2.8-5.2-5.3-7.3-8.6c-2.9-4.5-4.7-9-4.3-14.3
				c0.7-0.7,1.4-1.4,2.5-2.5c-0.7-0.5-1.3-1.1-2-1.5c-3.5-2.1-7-4.2-10.6-6.1c-2.8-1.5-5.8-2.9-8.7-4.2c-2.8-1.2-5.7-2.3-9-3.6
				c3,4.9,5.7,9.4,8.4,13.8c1,1.7,2,3.4,3.2,5c0.5,0.7,1.5,1.1,2.3,1.6c1.6,0.9,1.6,0.9,2.9,2.9c-1.1,0.1-2,0.4-2.9,0.2
				c-3.8-0.9-7.8-1.4-11.5-3c-3.5-1.5-7.2-3-10.1-5.3c-4.4-3.5-8.5-7.6-9.9-13.4c-0.1-0.3-0.3-0.7-0.3-1c0-1.1,0.1-2.3-0.1-3.4
				c-0.1-0.9-0.6-1.7-1-3c-2.3-0.3-4.9-1.1-7.5-1.4c-2.7-0.4-5.5-1.1-8.3-1c-2.9,0.1-5.8-0.1-8.6,0.1c-2.8,0.1-5.6-0.3-8.4,0.4
				c-2.6,0.7-5.5,0.5-8.2,1.1c-2.6,0.6-5.3,1.1-8,1.7c7.8,5.3,16.7,8.1,25.6,11.3c-0.6,0.5-1.1,1.1-1.6,1.2
				c-1.7,0.2-3.4-0.2-4.9,0.8c-3.6-0.4-7,0.5-10.6,0.8c-2.2,0.1-4.3-0.4-6.5,0.7c-0.7,0.4-1.9-0.1-2.8-0.2c-0.4-0.1-0.9-0.5-1.3-0.4
				c-4.1,0.5-7.2-1.9-10.4-3.8c-1.3-0.8-2.5-1.9-3.7-2.9c-2-1.8-3.4-2.1-5.8-0.8c-4.2,2.3-8.6,4.3-12.4,7.1c-3,2.2-6.4,4-8.7,7
				c-0.2,0.3-0.5,0.7-0.8,0.8c-2.3,0.6-3,2.6-4.2,4.4c1.9,0.8,3.4-0.8,5.1-0.8c0.4,0,0.8-0.5,1.3-0.5c1.2-0.1,2.5,0.1,3.7-0.1
				c1.2-0.1,2.3-0.7,3.4-0.7c1.4,0,2.8-0.1,4.3,0.5c1.3,0.5,3.2,0.3,5-0.3C239.1,301.6,241.7,302.2,244,302.1z M314.4,280.6
				c0.7,1.8,0.2,3.4,0.6,5.2c0.6,2.4,2.3,3.9,3.6,5.6c3.4,4.4,8,7.5,13.2,9.5c1.9,0.8,3.9,1.8,6.2,0.9c-0.1-0.4-0.2-0.8-0.4-1.1
				c-2.9-4.9-5.8-9.8-8.8-14.7c-0.6-1-1.5-2.2-2.6-2.6C322.6,281.9,319.2,279.5,314.4,280.6z M276.4,288.9c-1-0.4-2.1-0.7-2.9-1.3
				c-2.4-1.9-5.2-3-7.9-4.3c-4.3-2-8.7-2.4-13.3-2.2c-1.5,1.2-4,0.3-5.4,2.4c0.5,0.5,1.1,1.1,1.7,1.7c3.1,3.4,6.9,5,11.4,4.9
				c4-0.1,8-0.1,11.9,0C273.6,290.2,275,289.9,276.4,288.9z M372.8,280.5c-0.8-0.7-1.2-1.4-1.8-1.5c-2.5-0.4-5-0.6-7.5-0.8
				c-1.9-0.1-3.7,0.1-5.6,0c-3-0.2-5.5,1.1-8.2,2c-2.5,0.9-4.2,2.5-5.7,4.4c2.5,1.4,5.2,1.1,7.9,1.1c2.2,0,4.5-0.1,6.7,0
				c2.2,0.1,4.2-0.7,6.3-1.2C367.7,283.9,369.9,282.2,372.8,280.5z M372.2,323.2c0.9-1.8,1.4-3.2,1.1-5.3c-0.6-4.1-2.7-8.6-4-10.7
				c-1-1.6-2.2-3.2-3.6-4.5c-1.9-1.8-3.3-1.7-5.4-0.2c0,1.5-0.4,3.1,0.1,4.4c1.4,3.7,3,7.4,5.7,10.4c0.9,0.9,1.6,1.9,2.5,2.8
				C369.7,321.1,370.9,322,372.2,323.2z M279.9,271.1c12,2,21.5-4.4,24.1-10.7c-3.8-1.2-10.2,1-14.3,2.8
				C285.9,264.8,282.1,266.8,279.9,271.1z M232.8,269.1c-0.7,0-1.3-0.1-1.7,0c-4.5,1.8-8.5,6.3-9.4,10.9c-0.7,3.2,1.5,9.2,6,9.3
				c1-1,2-1.9,3-3c-0.1-2-0.2-4.1-0.6-6.3C229.2,276.3,231.2,272.8,232.8,269.1z M209.6,311.5c1.7,1.4,3.7,1.1,5.6,1.1
				c2,0,4,0.2,6-0.1c1.8-0.2,3.6-0.8,5.3-1.5c1.7-0.6,3.4-1.4,5-2.2c1.7-0.8,3.2-1.9,4.4-3.7c-1.6,0-3,0-4.3,0c-1.5,0-3,0-4.4-0.1
				c-1.2-1.8-2.2,0.5-3.5,0.1c-2.9-0.8-5.5,0.9-8.3,1.5c-1,0.2-1.8,1.1-2.6,1.7C211.6,309.4,210.6,310.5,209.6,311.5z M404.6,312.2
				c-1.9-0.7-4-1.2-5.8-2.1c-3.9-2-8.1-3.3-12.2-4.6c-2.5-0.8-5.1-0.8-7.5,0.9C384.4,313.8,396.4,316.2,404.6,312.2z"/> -->
			<!-- <path class="st0" d="M224.6,499.4c-2.4,0.9-4.5,0.1-6.4-1.5c-3.5-3-7.6-4.9-12-6c-3.3-0.9-4-0.9-7.9,0c-3.4,0.8-6.7,1.4-9.8,3.1
				c-2,1.1-4.7,1-7.1,1.4"/>
			<path class="st0" d="M352.7,510.6c-2.9-3.6-6.4-6.2-11.1-6.7c-2.6-0.3-5.3-0.7-7.9-0.3c-4.1,0.6-8.4,0.9-12.4,2.2
				c-0.8,0.2-1.5,0.5-2.2,0.8c-0.6,0.2-1.4,0.9-1.9,0.7c-2.5-0.9-5,0.5-7.5,0.1"/>
			<path class="st0" d="M284.6,521.5c0.1-1,0.4-2,0.3-3c-0.1-1-0.8-2.1-0.6-3c0.3-1.8-1.6-2.6-1.6-4.1c-6.2-7.5-14.1-12-23.6-13.5
				c-0.8-0.1-1.7,0.5-2.6,0.7"/> -->
			<!-- <path class="st0" d="M311.2,257.5c-1.9-0.4-2.9,1.4-4.6,1.9c-4-1.1-8-0.3-12,0.8c-4.8,1.3-9.2,3.3-13.1,6.4
				c-2.3,1.8-3.2,3.6-3,6.5c3.7,0.4,7.5,0.4,11.2,0.1c1.9-0.2,3.7-0.4,5.7,0.5c2,0.9,4.4,0.9,6.7,1.2c3.1,0.5,6.3,0.9,9.4,1.6
				c0.9,0.2,1.5,1.2,2.3,1.8c-0.4,2.8-0.9,5.6,0.3,8.2c0.7,1.5,1.2,3.3,2.3,4.4c2.5,2.5,4.7,5.2,7.8,7.2c3.2,2.1,6.8,3.5,10.2,5.2
				c1.7-0.3,3.6,1.3,5.2-0.4"/>
			<path class="st0" d="M278.6,289c-1.5-2.1-4-2.7-6-3.6c-3.8-1.8-7.5-4.1-11.6-5.4c-0.4-0.1-0.8-0.7-1.2-1.1
				c-3.6,0.6-7.3,0.6-10.8,1.9c-1.4,0.5-3.1,0.5-3.8,2.2"/>
			<path class="st0" d="M255.4,516.6c0,2.3-1.4,4-3,5.2c-3.7,2.8-7.9,4.6-12.7,5c-4.3,0.4-8.5-0.5-12.8-0.1c-1.2,0.1-2-0.8-3-1.1"/>
			<path class="st0" d="M381,277.4c-0.6,0.1-1.3,0.2-1.9,0.4c-2.5,0.7-4.8,1.2-7.6,0.2c-2.7-1-5.9-0.7-8.9-0.9
				c-1.9-0.1-3.8-0.1-5.6,0c-5.4,0.3-10.2,2.2-13.8,6.4c-0.5,0.6-0.5,1.5-0.8,2.2"/>
			<path class="st0" d="M201,321.2c1.8-5,5.3-8.8,8.7-12.7c1.2-1.4,2.2-2.9,3.1-4.5c1-1.8,2.5-3.4,4.1-4.9c2.1-2,4.6-3.7,6.7-5.7
				c2.9-2.8,7.2-3.8,9.8-7.1c4-0.2,6.8-3.7,11.2-3.8c0.9,0.9,1.9,2,3,3c1.4,1.3,2.7,2.6,4.5,3.4c2.6,1.3,5.2,2.5,8.3,2.3
				c4-0.2,8,0,12-0.1c1.5,0,3.3,0,4.4-0.8c2.3-1.6,4.5-0.8,6.8-0.7c1.2,0.1,2.5,0,3.7,0"/> -->
			<!-- <path class="st0" d="M242.2,303.2c-2.1,1-4.6,1.3-5.6,3.8c-4,2.7-8.2,5-13.1,6.1c-3.8,0.8-7.4,1.1-11.3,0.7
				c-1.9-0.2-3.3-1.3-4.9-2"/>
			<path class="st0" d="M320.2,523.8c0.8,2.1-0.1,3.6-1.4,5.3c-1.6,2.2-3.7,3.9-5.8,5c-2.8,1.5-5.5,3.6-8.9,3.9
				c-0.5,0.1-1,0.6-1.5,0.7c-2.1,0.4-4.2,1-6.4,1.1c-2.2,0.1-4.2,0.1-6,1.5c-0.4,0.3-1,0.3-1.5,0.4"/>
			<path class="st0" d="M387.4,477.2c-1.1-0.4-2.2-1-3.4-1.1c-6.6-0.6-12.8,0.8-18.4,4.4c-2.3,1.5-4.6,3-6.3,5
				c-1.9,2.3-4.4,3.5-6.8,4.8"/>
			<path class="st0" d="M376.9,306.2c1.4,3.2,4.4,4.4,7.1,6c5.1,2.9,9.1,3.8,15,2.9c2.2-0.4,4.6-0.6,6.8-1.6
				c2.7-1.2,5.9-1.3,8.9-1.2"/>
			<path class="st0" d="M406.5,312.6c-1-2-3.2-1.8-4.9-2.6c-4.6-2.2-9.3-4.4-14.3-5.5c-3.2-0.8-6.7-1.4-9.8,1
				c-0.4,0.4-1.4,0.6-1.8,0.3c-1.3-0.8-2.7-0.7-4.2-0.7"/> -->
			<!-- <path class="st0" d="M189.8,495.6c0.7,0.9,1.7,0.9,2.6,1.2c4.2,1.7,8.5,2.8,12.8,4c3.9,1.1,8,1.9,12,0.4c0.8-0.3,1.5-1,2.3-1.5"
				/>
			<path class="st0" d="M374.6,279.2c-1,3.1-3.9,4-6.4,5.2c-3.4,1.6-7,2.5-10.8,2.4c-3.3-0.1-6.6-0.3-9.8,0.9
				c-0.4,0.2-1-0.1-1.5-0.2c-1.7-0.1-3-1.5-4.9-1.6c-1.5-0.1-3.1-0.8-4.5-1.4c-2.5-1.1-4.9-2.7-7.9-2.3c-0.8,0.1-1.7-0.7-2.6-1
				c-3.8-1.6-7.8-2.9-12-3"/>
			<path class="st0" d="M393,469.4c-1.5,2.7-3,5.4-4.7,8c-1.7,2.5-3.1,5.2-4.6,7.8c-0.5,0.9-0.6,1.9-1.2,3.8
				c-3.3,3.3-7.3,7.3-11.2,11.2c0.4,1.4-1,1-1.5,1.5c-0.7,0.6-2.1,0.8-2.5,1.6c-2.5,4.2-7.7,4.1-10.9,7.1c-2.7-0.2-4.3,1.8-6.4,2.9
				c-2.6,1.3-5.7,1.6-8.6,2.4c-0.7,0.2-1.8,0-2.2,0.4c-3.3,3.2-7.8,3-11.7,4.5c-1.5,0.6-3.1,0.7-4.6,1.8c-1.4,1-3.2,1.4-5.2,1.3
				c-2.9-0.1-5.8,0.3-8.6,0.7c-1,0.1-2.3,0.4-3,1.1c-4.1,3.9-8.1,7.9-12,12c-0.5,0.5-1.3,1.3-0.4,2.2"/>
			<path class="st0" d="M305.2,524.9c-0.8-1-1.8-1.2-3-1.1c-4.3,0.2-8.5-0.2-12.8-0.7c-0.4,0-0.8,0.1-1.1,0
				c-1.4-0.5-2.8-1.5-4.1-1.3c-1.4,0.2-2.8,0.1-4.1-0.1c-1.2-0.2-2.5-0.2-3.7-0.4c-0.6-0.1-1.2-0.5-1.9-0.7
				c-1.9-0.6-3.8-1.9-5.6-1.7c-1.9,0.2-3.6-0.3-5.3-0.6c-1.8-0.3-3.5-1.4-5.3-1.8c-2-0.4-4-0.8-6-1.1c-1.7-0.3-3.5,0.4-5.2,0.6
				c-0.8,0.1-1.5,0.4-2.3,0.4c-4.7,0-9.2,1-13.5,2.9c-2.2,1-4.1,2.3-5.5,3.9c-1.9,2.3-4.3,3.8-6.8,5.2"/>
			<path class="st0" d="M371.6,501.6c1.8,1.7,3.9,3,5,5.6c2.1,4.9,0.3,9.8-2.7,13.2c-1.8,2-4.2,3-6.4,4.5c-1,0.7-2.4-0.3-3.4,1.1
				c-0.8,1-2.3,1.4-3.3,2.3c-0.7,0.7-1.4,0.8-2.3,0.7"/>
			<path class="st0" d="M374.2,324.6c1.4-4.2,1.5-4.3,0-9.4c-0.7-2.3-1.2-4.7-2.3-6.7c-0.7-1.3-0.1-2.8-1.4-3.8
				c-1.9-1.6-3.8-3.3-6-4.5c-1.6-0.9-2.9-0.9-4.2,0.4c-0.4,0.4-0.7,0.8-1.1,1.1c-0.5,5.7,1.8,9.8,4.6,14.2c1.9,3.1,4.8,5.4,7.5,7.9
				c1.3,1.2,3.4,0.9,4.5,2.6c0.7,1.2,2,2,3,3"/> -->
			<!-- <path class="st0" d="M215.2,475.8c0.1,0,0.3,0,0.4,0c1.9,0.8,3,2.5,4.5,3.7c1.5,1.2,3.8,0.9,5.2,2.3c2.2,2.1,4.5,4.1,6.3,6.4
				c1.8,2.3,3.2,4.9,4.5,7.5c0.7,1.5,0.9,3.2,1.2,4.8c0.3,1.8-1.1,2.9-2,4.1"/>
			<path class="st0" d="M382.9,485.5c-0.6,0.4-1-0.6-1.9-0.1c-1.6,0.8-3.5,1-5.2,1.6c-1.6,0.6-3.5,0.3-4.9,1.5
				c-4.5-0.3-9,1.4-13.5-0.4"/>
			<path class="st0" d="M238.1,304.8c-1-0.2-2-0.6-3-0.7c-2.2-0.2-4.6,0-6.7-0.5c-1.5-0.4-2.5,0.3-3.8,0.5c-1.4,0.1-2.8-0.1-4.1,0.1
				c-1.3,0.2-2.6,0.6-3.7,1.1c-1.4,0.6-2.8,0.3-4.1,0.3"/>
			<path class="st0" d="M328.5,282.6c0.6,2.5,2.6,4.2,3.8,6.4c2,3.6,4.3,7,6.3,10.5c0.8,1.3,1.3,2.7,1.9,4.2c2,0.7,4,1.4,6,2.2"/>
			<path class="st0" d="M249.8,496.4c0.8,0.1,1.5,0.1,2.2,0.4c2,0.7,4,1.3,4.9,3.7c0.5,1.4,1.7,2.5,2.6,3.8c3,4,6,8,9,12
				c0.4,0.6,0.5,1.5,0.8,2.2"/>
			<path class="st0" d="M319.1,507.6c0.8,1.3,2.2,1.3,3.4,1.9c4.3,2.3,8.9,3.8,13.5,5.3c0.9,0.3,1.8,0.7,2.6,1.1"/>
			<path class="st0" d="M234,268c0.6,0.8,0.3,1.6,0,2.2c-1.1,1.9-2.3,3.7-2.2,6c-1.1,0.9-0.7,1.9-0.4,3c0.6,2.3,1,4.7,1.5,7.1"/>
			<path class="st0" d="M239.2,264.2c-1.4,0.9-2.7,1.8-4.1,2.6c-0.5,0.3-1,0.5-1.5,0.6c-2.6,0.1-4.8,1.2-6.7,2.9
				c-1.7,1.4-3.7,2.7-4.8,4.5c-1.3,2.2-1.8,4.8-1.7,7.4c0.1,2.2,1.2,3.9,2.3,5.6c0.8,1.3,2.5,1.8,3,3.4"/>
			<path class="st0" d="M364.5,506.9c0.4,0.8,0.8,1.5,1.1,2.3c1.5,3.3,1.8,8.5,0.3,12c-0.5,1.3-1.1,2.4-1,3.8"/>
			<path class="st0" d="M278.2,272.9c-0.8,1-1.8,1.2-3,1.6c-2.9,0.8-5.8,1.2-8.7,1.7c-1.6,0.3-3.1,1.3-4.9,0.9
				c-0.3-0.1-0.7,0.7-1.1,1.1"/>
			<path class="st0" d="M347.2,288.2c0.4,1.1,1.3,1.7,2.2,2.3c3.9,2.4,8.2,4.3,11.6,7.5c0.4,0.4,0.8,0.7,1.1,1.1"/>
			<path class="st0" d="M220.5,480.2c-1.5,5.1,0.4,9.5,2.7,13.9c0.8,1.6,2.1,2.9,1.8,5c1.6,1.2,3.2,2.4,4.9,3.7
				c0.4,0.3,0.7,0.6,1.1,0.7c5.6,1.5,9.7,6,15.3,7.6c1.9,0.6,4.2,1.5,5.3,3.6"/>
			<path class="st0" d="M306.4,259.8c-1.3,2.7-3.2,5-5.6,6.8c-2.2,1.6-4.3,3.2-6.4,4.9"/> -->
		</g>
	</g>
</g>
</svg>
