<svg xmlns="http://www.w3.org/2000/svg" viewBox="0 0 300 300">
	<style type="text/css">
		.st0{fill:#ED2325;stroke:rgb(238, 130, 127);stroke-width:2px}
		.st1{fill:#270300;stroke:rgb(238, 130, 127);stroke-width:2px}
		.st2{fill:#696464;stroke:rgb(238, 130, 127);stroke-width:2px}
		.st3{fill:#696464;stroke:rgb(238, 130, 127);stroke-width:2px}
		.st4{fill:#696464;stroke:rgb(238, 130, 127);stroke-width:2px}
	</style>
	<g>
		<path class="st0" d="M51.1,151.1c0-56.2,45-101.3,101-101.3c56.1,0,101.3,45.4,101.3,101.8c0,55.9-45.8,101.3-102,101.3
			C96.2,252.8,51.1,207.1,51.1,151.1z M160.1,150.8c0,12.1,0,23.5,0,34.9c3.5,0,6.4,0,9.2,0c0-26.4,0-52.4,0-78.4c-3.2,0-6,0-9.5,0
			c0,12,0,23.6,0,35.2c-5.7,0-10.6,0-16,0c0-11.9,0-23.5,0-35.2c-3.4,0-6.3,0-9.2,0c0,26.4,0,52.4,0,78.4c3.3,0,6.2,0,9.7,0
			c0-11.8,0-23.2,0-34.9c3.9,0,7.2,0,10.5,0C156.2,150.8,157.7,150.8,160.1,150.8z M152,198c-6.1,0-11.1,5.1-11,11.1
			c0.1,5.7,5.3,10.8,10.9,10.8c5.8,0,11.1-5.4,11-11.2C162.8,202.8,157.9,198,152,198z M123.8,198c-5.8,0-10.8,5.1-10.7,10.8
			c0.1,5.7,5.2,10.7,10.9,10.7c5.6,0,10.9-5.4,10.7-10.9C134.7,202.7,129.7,198,123.8,198z M190.6,209c0.1-5.8-4.7-10.8-10.6-11
			c-5.8-0.2-10.9,4.6-11.1,10.5c-0.2,5.7,4.7,10.8,10.5,11.1C185.1,219.7,190.5,214.6,190.6,209z"/>
		<path class="st1" d="M160.1,150.8c-2.4,0-3.9,0-5.3,0c-3.3,0-6.6,0-10.5,0c0,11.7,0,23.1,0,34.9c-3.5,0-6.4,0-9.7,0
			c0-25.9,0-52,0-78.4c2.9,0,5.8,0,9.2,0c0,11.6,0,23.2,0,35.2c5.4,0,10.3,0,16,0c0-11.6,0-23.3,0-35.2c3.5,0,6.3,0,9.5,0
			c0,26,0,52,0,78.4c-2.8,0-5.7,0-9.2,0C160.1,174.4,160.1,163,160.1,150.8z"/>
		<path class="st2" d="M152,198c5.8,0,10.8,4.8,10.9,10.6c0.1,5.8-5.2,11.3-11,11.2c-5.6,0-10.8-5.1-10.9-10.8
			C140.9,203.1,146,198,152,198z"/>
		<path class="st3" d="M123.8,198c5.9,0,10.8,4.8,11,10.6c0.2,5.5-5.1,10.9-10.7,10.9c-5.7,0-10.8-5-10.9-10.7
			C113,203.1,118,198,123.8,198z"/>
		<path class="st4" d="M190.6,209c-0.1,5.6-5.6,10.8-11.1,10.5c-5.8-0.2-10.7-5.4-10.5-11.1c0.2-5.8,5.3-10.6,11.1-10.5
			C185.9,198.2,190.8,203.2,190.6,209z"/>
	</g>
</svg>
