<svg xmlns="http://www.w3.org/2000/svg" viewBox="0 0 300 300">
	<style type="text/css">
		.st0{fill:none;stroke:rgb(138, 139, 212);stroke-width:5px}
		.st1{fill:rgb(138, 139, 212);stroke:rgb(138, 139, 212);stroke-width:2px}
		.st2{fill:none;stroke:gold;stroke-width:5px}
		.st3{fill:none;stroke:gold;stroke-width:5px}
		.st4{fill:none;stroke:gold;stroke-width:5px}
	</style>
	<g>
		<path class="st0" d="M51.1,151.1c0-56.2,45-101.3,101-101.3c56.1,0,101.3,45.4,101.3,101.8c0,55.9-45.8,101.3-102,101.3
			C96.2,252.8,51.1,207.1,51.1,151.1z"/>
		<path class="st1" d="M160.1,150.8c-2.4,0-3.9,0-5.3,0c-3.3,0-6.6,0-10.5,0c0,11.7,0,23.1,0,34.9c-3.5,0-6.4,0-9.7,0
			c0-25.9,0-52,0-78.4c2.9,0,5.8,0,9.2,0c0,11.6,0,23.2,0,35.2c5.4,0,10.3,0,16,0c0-11.6,0-23.3,0-35.2c3.5,0,6.3,0,9.5,0
			c0,26,0,52,0,78.4c-2.8,0-5.7,0-9.2,0C160.1,174.4,160.1,163,160.1,150.8z"/>
		<path class="st2" d="M152,198c5.8,0,10.8,4.8,10.9,10.6c0.1,5.8-5.2,11.3-11,11.2c-5.6,0-10.8-5.1-10.9-10.8
			C140.9,203.1,146,198,152,198z"/>
		<path class="st3" d="M123.8,198c5.9,0,10.8,4.8,11,10.6c0.2,5.5-5.1,10.9-10.7,10.9c-5.7,0-10.8-5-10.9-10.7
			C113,203.1,118,198,123.8,198z"/>
		<path class="st4" d="M190.6,209c-0.1,5.6-5.6,10.8-11.1,10.5c-5.8-0.2-10.7-5.4-10.5-11.1c0.2-5.8,5.3-10.6,11.1-10.5
			C185.9,198.2,190.8,203.2,190.6,209z"/>
	</g>
</svg>
